/* XPM */
static char *result[] = {
/* columns rows colors chars-per-pixel */
"32 32 10 1 ",
"  c black",
". c #5D3B26",
"X c #90664C",
"o c #69CD33",
"O c #F48329",
"+ c #9CFF67",
"@ c #FFDB51",
"# c #0C7BFF",
"$ c #FFEA97",
"% c white",
/* pixels */
"++++++++++++++++++++++++++++++++",
"++++++++++++++++++++++++++++++++",
"o+o++++o+o++++oo+o++++o++o+o+++o",
"ooo+++o.oo+++++o+o++++o+oo++o++o",
"o.....o.oo.XX.oo.o.XX.oo.X.oo.oo",
"o.XXXX.o.oX.XXo.Xo.XXX.o.XX..X.o",
".XXXXXX.XXXXXXXXXXXXXXXXXXXXXXX.",
"XX%%%%%%%XXXXX%%%%%%XXXX%%%%XXXX",
"%%#######%%%%%######%%%%####%%%%",
"###############O################",
"##############OOO###############",
"#####O########OOO########O######",
"#####OO######OOOOO######OO######",
"#####OOO#####OOOOO#####OOO######",
"#####OOOO###O@@@@@O###OOOO######",
"#####OOOOO#@@@@@@@@@#OOOOO######",
"######OOO@@@@@@@@@@@@@OOO#######",
"######OO@@@@@@@@@@@@@@@OO#######",
"#######O@@% @@@@@@@ %@@O########",
"#######@@@  @@@@@@@  @@@########",
"#OO####@@@@@@$$$$$@@@@@@####OO##",
"#OOOOOO@@@@@$$   $$@@@@@OOOOOO##",
"##OOOOO@@@@@$$$ $$$@@@@@OOOOO###",
"###OOOO@@@@@ $$ $$ @@@@@OOOO####",
"####OOO@@@@@$     $@@@@@OOO#####",
"########@@@@@$$$$$@@@@@#########",
"########@@@@@@@@@@@@@@@#########",
"########O@@@@@@@@@@@@@O#########",
"###O###OOOO@@@@@@@@@OOOO###O####",
"###OOOOOOO###@@@@@###OOOOOOO####",
"####OOOOO#############OOOOO#####",
"################################"
};
