/* XPM */
static char *result[] = {
/* columns rows colors chars-per-pixel */
"32 32 9 1 ",
"  c black",
". c #5D3B26",
"X c #CE2424",
"o c #90664C",
"O c #69CD33",
"+ c #F0B97A",
"@ c #9CFF67",
"# c #0C7BFF",
"$ c white",
/* pixels */
"@@@@@@@@@@@@@@@@@@@@@@@@@@@@@@@@",
"@@@@@@@@@@@@@@@@@@@@@@@@@@@@@@@@",
"O@O@@@@O@O@@@@OO@O@@@@O@@O@O@@@O",
"OOO@@@O.OO@@@@@O@O@@@@O@OO@@O@@O",
"O.....O.OO.oo.OO.O.oo.OO.o.OO.OO",
"O.oooo.O.Oo.ooO.oO.ooo.O.oo..o.O",
".oooooo.ooooooooooooooooooooooo.",
"oo$$$$oooo$$$ooo$$$$oooo$$$$oooo",
"$$####$$$$###$$$####$$$$####$$$$",
"################################",
"################################",
"################################",
"################################",
"################################",
"################################",
"################################",
"################################",
"################   #############",
"############### +++ ############",
"############   +++++   #########",
"########### ++ +++++ ++ ########",
"########## +++ X+++X +++ #######",
"########## +++ +XXX+ +++ #######",
"########## +++++++++++++ #######",
"########### +++++++++++ ########",
"############ +++++++++ #########",
"############# +++++++ ##########",
"##############       ###########",
"################################",
"################################",
"################################",
"################################"
};
