/* XPM */
static char *result[] = {
/* columns rows colors chars-per-pixel */
"32 32 4 1 ",
"  c #1E4E03",
". c #E2D600",
"X c #9CFF67",
"o c white",
/* pixels */
"XXXXXXXXXXXXXXXXXXXXXXXXXXXXXXXX",
"XXXXXXXXXXXXXXXXXXXXXXXXXXXXXXXX",
"XXXXXXXXXXXXXXXXXXXXoXXXXXXXXXXX",
"XXXXXXXXXXXXXXXXXXXo.oXXXXXXXXXX",
"XXXXXXXXXXXXXXXXXXXXoXXXXXXXXXXX",
"XXXXXXXXXXXXXXXXXXXXXXX XXXXX XX",
"XXXXXXoXXXXXXXXXXXXXXXXX XXX XXX",
"XXXXXo.oXXXXXXXXXXXXXXXX XXX XXX",
"XXXXXXoXXXXXXXXXXXXXXXXXX X XXXX",
"XXXXXXXXXXXXXXXXXXXXXXXXX X XXXX",
"XXXXXXXXXXXXXXXXXXXXXXXXXXXXXXXX",
"XXXXXXXXXXXXXXXXXXXXXXXXXXXXXXXX",
"XXXXXXXXXXXXXXXXXXXXXXXXXXXXXXXX",
"XXXXXXXXXXXXXXXXXXXXXXXXXXXXXXXX",
"XXXXXXXXXXXXXXXXXXXXXXXXXXXXXXXX",
"XXXXXXXXXXXXXXXXXXXXXXXXXXXXXXXX",
"XXXXXXXXXXXXXXXXXXXXXXXXXXXXXXXX",
"XXXXXXXXXXXXXXXXXXXXXXXXXXXXXXXX",
"XXXXXXXXXXXXXXXXXXXXXXXXXXXXXXXX",
"XXXXXXXXXXXXXXXXoXXXXXXXXXXXXXXX",
"XXXXXXXXXXXXXXXo.oXXXXXXXXXXXXXX",
"XXXXXXXXXXXXXXXXoXXXXXXXXXXXXXXX",
"XXXXXXXXXXXXXXXXXXXXXXXXXXXXXXXX",
"XXX XXXX XXXXXXXXXXXXXXXXXXXXXXX",
"XXX  XX  XXX XXXXXXXXXXXXXXXXXXX",
"XXXX XX XXX XXXXXXXXXXXXXXXXXXXX",
"XXXX  X XX XXXXXXXXXXXXXXXXXXXXX",
"XXXXX X XX XXXXXXXXXXXXXXXXXXXXX",
"XXXXX X  X XXXXXXXXXXXXXXXXXXXXX",
"XXXXXXXXXXXXXXXXXXXXXXXXXXXXXXXX",
"XXXXXXXXXXXXXXXXXXXXXXXXXXXXXXXX",
"XXXXXXXXXXXXXXXXXXXXXXXXXXXXXXXX"
};
