/* XPM */
static char *result[] = {
/* columns rows colors chars-per-pixel */
"32 32 6 1 ",
"  c black",
". c #387F12",
"X c #A41414",
"o c #CE2424",
"O c #FF3232",
"+ c None",
/* pixels */
"++++++++++++++++++++++++++++++++",
"++++++++++++++++++++++++++++++++",
"++++++++++++++++++++++++++++++++",
"++++++++++++++++++++++++++++++++",
"++++++                       +++",
"++++  OOOOOO.OOOOOOOOOOOO  X +++",
"+++                      XXX +++",
"+++ .ooooooooooooooooooo .X. +++",
"+++ o.XXoXoXoXXoXooXXooo X.X +++",
"+++ .ooXoXXXoXooXXooXooo XXX +++",
"+++ ooXXoXXooXooXo..Xooo XXX +++",
"+++ oooooooooooooo..oooo XXX +++",
"+++ ooooooooooooooo.oooo XXX +++",
"+++ oooXo.XXoXXooXooXooo XXX +++",
"+++ ooXX.XooooooooooXXoo XXX +++",
"+++ oooXoXoooXXoXooXXooo XXX +++",
"+++ oooooooooooooooooooo XXX +++",
"+++ oooooooooooooooooooo XXX +++",
"+++ ooXooXoXooXoXXoXoooo XX. +++",
"+++ oooooXXXoXooXXooXXoo XXX +++",
"+++ ooXXoooXoXXoooooXooo XXX +++",
"+++ oooooooooooooooooooo XXX +++",
"+++ oooooooooooooooooo.. .XX +++",
"+++ ..XoooXXooXoXoooX.oo X. ++++",
"+++ .oXooXoooXoooXoo.ooo X +++++",
"+++ o...oooXo.XoXo..XXoo X +++++",
"+++ ..o.o.oooo.ooo.ooooo  ++++++",
"+++                      +++++++",
"++++++++++++++++++++++++++++++++",
"++++++++++++++++++++++++++++++++",
"++++++++++++++++++++++++++++++++",
"++++++++++++++++++++++++++++++++"
};
