/* XPM */
static char *result[] = {
/* columns rows colors chars-per-pixel */
"32 32 12 1 ",
"  c #1D1F24",
". c #2D2E36",
"X c #1E4E03",
"o c #1E7103",
"O c #575769",
"+ c #575A69",
"@ c #FDEA00",
"# c #9CFF67",
"$ c #878CA3",
"% c #9799AC",
"& c #C3C5DE",
"* c white",
/* pixels */
"################################",
"################################",
"################################",
"#oX####################*########",
"##oX#o################*@*#######",
"###X#X#################*########",
"###X#X##########################",
"####oX#X########################",
"####oXXX#####      #############",
"####XXX##### %%%%%% ############",
"##########  %%%%%%%% ###########",
"######### %%%%%%%%%%% ##########",
"######## %%%%%%%%%%%% ###X######",
"####### %%%%%%%%%%%%%% #XX######",
"####### &&%%%%%%%%%%%%+ X#######",
"###### $OOO&&&&%%%%++... #######",
"###### $OOOOOOOOO....... #######",
"###### $OOOOOOOOO........ ######",
"###### $OOOOOOOOOO........ #####",
"###### $+OOOOOOOOO......... ####",
"###### oOOOOOOOOOOO..oXX.o. ####",
"###### XXOOOOOXOOOO.o.XXXX. ####",
"###### +oXOoOXXOOOO.oXXXXX. ####",
"###### +oXXXXXOOOOOO..XXXX #####",
"####### XXXXXXOOOOOO..oXXX######",
"########XXXXXXOOOOOO.. oX#######",
"#########ooXXX        ##########",
"############oX##################",
"################################",
"################################",
"################################",
"################################"
};
