/* XPM */
static char *result[] = {
/* columns rows colors chars-per-pixel */
"32 32 7 1 ",
"  c #5D3B26",
". c #90664C",
"X c #69CD33",
"o c #9CFF67",
"O c #12529E",
"+ c #0C7BFF",
"@ c white",
/* pixels */
"oooooooooooooooooooooooooooooooo",
"oooooooooooooooooooooooooooooooo",
"XoXooooXoXooooXXoXooooXooXoXoooX",
"XXXoooX XXoooooXoXooooXoXXooXooX",
"X     X XX .. XX X .. XX . XX XX",
"X .... X X. ..X .X ... X ..  . X",
" ...... ....................... ",
"..@@@@....@@@...@@@@....@@@@....",
"@@++++@@@@+++@@@++++@@@@++++@@@@",
"++++++++++++++++++++++++++++++++",
"++++++++++++++++++++++++++++++++",
"++++++++++++++++++++++++++++++++",
"+++++++++++++OOOOOOOOO++++++++++",
"+++++++++++OO+++++++++OO++++++++",
"+++++++++OO+++++++++++++OO++++++",
"++++++++O+++++++++++++++++O+++++",
"+++++++O++++++OOOOOOOO+++++O++++",
"++++++O+++++OO++++++++OO++++O+++",
"++++++O++++O++++++++++++O+++O+++",
"++++++O++++O++++OOOOO+++O+++O+++",
"++++++O++++O++++OOOOO+++O+++O+++",
"++++++O++++O++++++++++++O+++O+++",
"++++++O+++++OO++++++++OO++++O+++",
"+++++++O++++++OOOOOOOO+++++O++++",
"++++++++O+++++++++++++++++O+++++",
"+++++++++OO+++++++++++++OO++++++",
"+++++++++++OO+++++++++OO++++++++",
"+++++++++++++OOOOOOOOO++++++++++",
"++++++++++++++++++++++++++++++++",
"++++++++++++++++++++++++++++++++",
"++++++++++++++++++++++++++++++++",
"++++++++++++++++++++++++++++++++"
};
