/* XPM */
static char *result[] = {
/* columns rows colors chars-per-pixel */
"32 32 18 1 ",
"  c black",
". c gray11",
"X c #334A62",
"o c #555555",
"O c #A41414",
"+ c #CE2424",
"@ c #AF7028",
"# c #AF7F48",
"$ c #A07565",
"% c #AD982C",
"& c #FFDE32",
"* c #B18271",
"= c #F0B97A",
"- c #7498BE",
"; c gray57",
": c #F2C7B7",
"> c white",
", c None",
/* pixels */
",,,,,,,,,,,,,,,,,,,,,,,,,,,,,,,,",
",,,,,,,,,,,,,,,,,,,,,,,,,,,,,,,,",
",,,,,,,,,,,,,,,,,,,,,,,,,,,,,,,,",
",,,,,,,,,,,,,,,,,,,,,,,,,,,,,,,,",
",,,,,,,,,,,,,,,,,,,,,,,,,,,,,,,,",
",,,,,,,,,,,,,,,,,,,,,,,,,,,,,,,,",
",,,,,,,,,,,,,,,,,,,,,,,,,,,,,,,,",
",,,,,,,,,,,,    ,,,,,,,,,,,,,,,,",
",,,,,,,,,,, @===@  ,,,,,,,,,,,,,",
",,,,,,,,,, ======== ,,,,,,,,,,,,",
",,,,,,,,, =@=======@ ,,,,,,,,,,,",
",,,,,,,,, =========== ,,,,,,,,,,",
",,,,,,,, @===========+ ,,,,,,,,,",
",,,,,,,, +==========+= ,,,,,,,,,",
",,,,,,,, @++++++++++=@ ,,,,,,,,,",
",,,,,,  @##=########=#@  ,,,,,,,",
",,,,, @@######=#=######@@ ,,,,,,",
",,,,,,  :.. ; *** ; ..:  ,,,,,,,",
",,,,,,, :. *> ::: >* .: ,,,,,,,,",
",,,,,,,, . *:::::oo* . ,,,,,,,,,",
",,,,,,,, . O*::*:::O .  ,,,,,,,,",
",,,,,,,,,  +O$***$O+  :: ,,,,,,,",
",,,,,,,,  O++:$$$:++OO:: ,,,,,,,",
",,,,,,, ::O++:*:*:++,   ,,,,,,,,",
",,,,,,, :: ++::*::++ ,,,,,,,,,,,",
",,,,,,,,   O+&&&&&+O ,,,,,,,,,,,",
",,,,,,,,,,   X---%   ,,,,,,,,,,,",
",,,,,,,,,, XX     XX ,,,,,,,,,,,",
",,,,,,,,,,,,,,,, .: ,,,,,,,,,,,,",
",,,,,,,,,,,,,,,, .: ,,,,,,,,,,,,",
",,,,,,,,,,,,,,,,,  ,,,,,,,,,,,,,",
",,,,,,,,,,,,,,,,,,,,,,,,,,,,,,,,"
};
