/* XPM */
static char *result[] = {
/* columns rows colors chars-per-pixel */
"32 32 11 1 ",
"  c black",
". c gray11",
"X c #A41414",
"o c #CE2424",
"O c #AF7028",
"+ c #AF7F48",
"@ c #A07565",
"# c #B18271",
"$ c #F0B97A",
"% c #F2C7B7",
"& c None",
/* pixels */
"&&&&&&&&&&&&&&&&&&&&&&&&&&&&&&&&",
"&&&&&&&&&&&&&&&&&&&&&&&&&&&&&&&&",
"&&&&&&&&&&&&&&&&&&&&&&&&&&&&&&&&",
"&&&&&&&&&&&&&&&&&&&&&&&&&&&&&&&&",
"&&&&&&&&&&&&&&&&&&&&&&&&&&&&&&&&",
"&&&&&&&&&&&&&&&&&&&&&&&&&&&&&&&&",
"&&&&&&&&&&&&&&&&&&&&&&&&&&&&&&&&",
"&&&&&&&&&&&&&&   &&&&&&&&&&&&&&&",
"&&&&&&&&&&&& O$$$O &&&&&&&&&&&&&",
"&&&&&&&&&&& $$$$$$$ &&&&&&&&&&&&",
"&&&&&&&&&& O$$$$$$$O &&&&&&&&&&&",
"&&&&&&&&& $$$$$$$$$$$ &&&&&&&&&&",
"&&&&&&&& O$$$$$$$$$$$O &&&&&&&&&",
"&&&&&&&& o$$$$$$$$$$$o &&&&&&&&&",
"&&&&&&&& OoooooooooooO &&&&&&&&&",
"&&&&&&  O++$++++++++$+O  &&&&&&&",
"&&&&& OO++++++$+$++++++OO &&&&&&",
"&&&&&&  %.............%  &&&&&&&",
"&&&&&&& %.............% &&&&&&&&",
"&&&&&&&& ............. &&&&&&&&&",
"&&&&&&&& . X#..#...X . &&&&&&&&&",
"&&&&&&&&&  oX@###@Xo  &&&&&&&&&&",
"&&&&&&&&  XoooooooooX  &&&&&&&&&",
"&&&&&&& %%XoooooooooX%% &&&&&&&&",
"&&&&&&& %% ooooooooo %% &&&&&&&&",
"&&&&&&&&   XoooooooX   &&&&&&&&&",
"&&&&&&&&&&   XXXXX   &&&&&&&&&&&",
"&&&&&&&&&& ..     .. &&&&&&&&&&&",
"&&&&&&&&&&&  &&&&&  &&&&&&&&&&&&",
"&&&&&&&&&&&&&&&&&&&&&&&&&&&&&&&&",
"&&&&&&&&&&&&&&&&&&&&&&&&&&&&&&&&",
"&&&&&&&&&&&&&&&&&&&&&&&&&&&&&&&&"
};
