/* XPM */
static char *result[] = {
/* columns rows colors chars-per-pixel */
"32 32 14 1 ",
"  c black",
". c gray11",
"X c #412E2E",
"o c #A41414",
"O c #CE2424",
"+ c #9A6C5B",
"@ c #AF7F48",
"# c #B18271",
"$ c #F0B97A",
"% c #7498BE",
"& c gray57",
"* c #F2C7B7",
"= c white",
"- c None",
/* pixels */
"--------------------------------",
"--------------------------------",
"--------------------------------",
"--------------------------------",
"--------------------------------",
"--------------------------------",
"--------------------------------",
"---------------   --------------",
"-------------- $$$ -------------",
"------------- $$$$$ ------------",
"------------ $$$$$$$ -----------",
"----------- $$$$$$$$$ ----------",
"----------- O$$$$$$$O ----------",
"----------- $OOOOOOO$ ----------",
"---------  @@@@@@@@@@@  --------",
"-------- @@@@@@$@$@@@@@@ -------",
"---------               --------",
"-----------+# &#..... ----------",
"-----------+* =*.*... ----------",
"-----------#****.**.. ----------",
"------------+***#*## -----------",
"-------------+++    ------------",
"--------------oOOO -------------",
"-------------oOXXOo ------------",
"-------------X**XOO ------------",
"------------ X**XOO ------------",
"----------- XoXXOOo   ----------",
"----------- XX     %*. ---------",
"------------  ----- *. ---------",
"--------------------  ----------",
"--------------------------------",
"--------------------------------"
};
